<svg xmlns="http://www.w3.org/2000/svg" viewBox="0 0 600 800" role="img" aria-labelledby="title"><title id="title">cafe — original wishscene mock illustration, variation 1</title><defs><linearGradient id="sky" x2="0" y2="1"><stop stop-color="#e8bda8"/><stop offset="1" stop-color="#f8dfbd"/></linearGradient><filter id="grain"><feTurbulence type="fractalNoise" baseFrequency=".8" numOctaves="3" stitchTiles="stitch"/><feColorMatrix type="saturate" values="0"/><feComponentTransfer><feFuncA type="linear" slope=".055"/></feComponentTransfer></filter><filter id="warm"><feColorMatrix type="matrix" values="1.06 0 0 0 .025 0 1 0 0 .008 0 0 .9 0 .02 0 0 0 1 0"/></filter></defs><g><rect width="600" height="800" fill="url(#sky)"/><rect x="0" y="160" width="600" height="620" fill="#9b756d"/><rect x="54" y="211" width="492" height="375" rx="120" fill="#2f3148"/><path d="M301 211v372M56 392h487" stroke="#bda394" stroke-width="12"/><path d="M64 565 180 458 267 515l146-181 123 231" fill="#535574"/><circle cx="423" cy="304" r="42" fill="#ffcfb1"/><path d="M0 662h600v138H0Z" fill="#514153"/><path d="M97 0v214m400-214v214" stroke="#303048" stroke-width="5"/><path d="M52 237q45-92 90 0Zm400 0q45-92 90 0Z" fill="#e7ab89"/><g fill="#f6d2a3"><ellipse cx="97" cy="236" rx="45" ry="10"/><ellipse cx="497" cy="236" rx="45" ry="10"/></g><g transform="translate(309 536) scale(1.35)"><ellipse cy="107" rx="44" ry="9" fill="#101326" opacity=".2"/><path d="M-22 24-21 69-28 100-11 103 1 66 10 103 28 101 20 62 18 22Z" fill="#22233b"/><path d="m-27-23-17 63 15 5 14-36-6 31h41l-7-37 18 32 12-8-29-53Z" fill="#f3e2d4"/><path d="m-7-26 7 34 11-33" fill="#cbc2d0"/><rect x="-7" y="-39" width="18" height="22" rx="6" fill="#ba826e"/><ellipse cy="-51" rx="18" ry="23" fill="#cb927a"/><path d="M-18-49q-8-32 21-29 24 4 15 29l-9-17-28 12" fill="#252437"/><path d="m-26 99-9 6v5h23v-9m24 0v9h26v-6l-11-5" fill="#161a30"/></g><ellipse cx="321" cy="641" rx="169" ry="25" fill="#dca286"/><path d="m282 654-20 146m88-146 20 146" stroke="#3d3346" stroke-width="13"/><rect x="212" y="603" width="30" height="30" rx="5" fill="#ffead2"/><path d="M242 607q25 8 0 19" fill="none" stroke="#ffead2" stroke-width="5"/><path d="M212 593q12-12 0-24" fill="none" stroke="#ffead2" opacity=".4"/><path d="M33 679q6-112 53-174-15 134-21 179" fill="#334e49"/><path d="m34 670-18-146q67 53 49 158" fill="#547664"/><path d="m17 677 63 1-13 72H27Z" fill="#c68c74"/></g><rect width="600" height="800" filter="url(#grain)" opacity=".6"/><text x="24" y="778" font-family="sans-serif" font-size="10" letter-spacing="2" fill="#fff" opacity=".7">WISHSCENE / ILLUSTRATED DEMO</text></svg>